<mxfile host="app.diagrams.net" modified="2024-01-11T03:59:34.023Z" agent="Mozilla/5.0 (Windows NT 10.0; Win64; x64) AppleWebKit/537.36 (KHTML, like Gecko) Chrome/118.0.0.0 YaBrowser/23.11.0.0 Safari/537.36" etag="V9e2xJ_7vftBDMDYvgDB" version="22.1.18" type="device">
  <diagram name="Страница — 1" id="3JWD1tak5FZXoBdkT12W">
    <mxGraphModel dx="1242" dy="575" grid="1" gridSize="10" guides="1" tooltips="1" connect="1" arrows="1" fold="1" page="1" pageScale="1" pageWidth="827" pageHeight="1169" math="0" shadow="0">
      <root>
        <mxCell id="0" />
        <mxCell id="1" parent="0" />
        <mxCell id="pRDgy3IIo6qXGNHevJjW-6" value="конец" style="rounded=1;whiteSpace=wrap;html=1;" vertex="1" parent="1">
          <mxGeometry x="300" y="720" width="120" height="40" as="geometry" />
        </mxCell>
        <mxCell id="pRDgy3IIo6qXGNHevJjW-29" value="" style="edgeStyle=orthogonalEdgeStyle;rounded=0;orthogonalLoop=1;jettySize=auto;html=1;" edge="1" parent="1" source="pRDgy3IIo6qXGNHevJjW-1" target="pRDgy3IIo6qXGNHevJjW-3">
          <mxGeometry relative="1" as="geometry" />
        </mxCell>
        <mxCell id="pRDgy3IIo6qXGNHevJjW-1" value="начало" style="rounded=1;whiteSpace=wrap;html=1;" vertex="1" parent="1">
          <mxGeometry x="299.5" y="110" width="120" height="40" as="geometry" />
        </mxCell>
        <mxCell id="pRDgy3IIo6qXGNHevJjW-9" value="" style="edgeStyle=orthogonalEdgeStyle;rounded=0;orthogonalLoop=1;jettySize=auto;html=1;entryX=0.5;entryY=0;entryDx=0;entryDy=0;exitX=0.5;exitY=1;exitDx=0;exitDy=0;" edge="1" parent="1" source="pRDgy3IIo6qXGNHevJjW-2" target="pRDgy3IIo6qXGNHevJjW-24">
          <mxGeometry relative="1" as="geometry">
            <mxPoint x="360" y="420" as="sourcePoint" />
            <mxPoint x="359" y="530" as="targetPoint" />
            <Array as="points">
              <mxPoint x="360" y="450" />
            </Array>
          </mxGeometry>
        </mxCell>
        <mxCell id="pRDgy3IIo6qXGNHevJjW-10" value="ДА" style="edgeLabel;html=1;align=center;verticalAlign=middle;resizable=0;points=[];" vertex="1" connectable="0" parent="pRDgy3IIo6qXGNHevJjW-9">
          <mxGeometry x="-0.48" y="-1" relative="1" as="geometry">
            <mxPoint x="1" as="offset" />
          </mxGeometry>
        </mxCell>
        <mxCell id="pRDgy3IIo6qXGNHevJjW-23" style="edgeStyle=orthogonalEdgeStyle;rounded=0;orthogonalLoop=1;jettySize=auto;html=1;exitX=0;exitY=0.5;exitDx=0;exitDy=0;entryX=0;entryY=0.5;entryDx=0;entryDy=0;" edge="1" parent="1" source="pRDgy3IIo6qXGNHevJjW-2" target="pRDgy3IIo6qXGNHevJjW-5">
          <mxGeometry relative="1" as="geometry">
            <mxPoint x="190" y="690" as="targetPoint" />
            <Array as="points">
              <mxPoint x="160" y="360" />
              <mxPoint x="160" y="670" />
            </Array>
          </mxGeometry>
        </mxCell>
        <mxCell id="pRDgy3IIo6qXGNHevJjW-34" value="НЕТ" style="edgeLabel;html=1;align=center;verticalAlign=middle;resizable=0;points=[];" vertex="1" connectable="0" parent="pRDgy3IIo6qXGNHevJjW-23">
          <mxGeometry x="-0.8788" y="1" relative="1" as="geometry">
            <mxPoint as="offset" />
          </mxGeometry>
        </mxCell>
        <mxCell id="pRDgy3IIo6qXGNHevJjW-2" value="i &amp;lt; array1.Length" style="rhombus;whiteSpace=wrap;html=1;" vertex="1" parent="1">
          <mxGeometry x="280" y="330" width="160" height="60" as="geometry" />
        </mxCell>
        <mxCell id="pRDgy3IIo6qXGNHevJjW-30" value="" style="edgeStyle=orthogonalEdgeStyle;rounded=0;orthogonalLoop=1;jettySize=auto;html=1;" edge="1" parent="1" source="pRDgy3IIo6qXGNHevJjW-3" target="pRDgy3IIo6qXGNHevJjW-4">
          <mxGeometry relative="1" as="geometry" />
        </mxCell>
        <mxCell id="pRDgy3IIo6qXGNHevJjW-3" value="&lt;span style=&quot;color: rgb(44, 45, 48); font-family: Onest, Roboto, &amp;quot;San Francisco&amp;quot;, &amp;quot;Helvetica Neue&amp;quot;, Helvetica, Arial; font-style: normal; font-variant-ligatures: normal; font-variant-caps: normal; font-weight: 400; letter-spacing: normal; orphans: 2; text-align: start; text-indent: 0px; text-transform: none; widows: 2; word-spacing: 0px; -webkit-text-stroke-width: 0px; background-color: rgb(255, 255, 255); text-decoration-thickness: initial; text-decoration-style: initial; text-decoration-color: initial; float: none; display: inline !important;&quot;&gt;&lt;font style=&quot;font-size: 12px;&quot;&gt;array 1: [“Hello”, “2”, “world”, “:-)”]&lt;br&gt;array 2: со счетчиком символов в строках array 1.&lt;/font&gt;&lt;br&gt;&lt;/span&gt;" style="shape=parallelogram;perimeter=parallelogramPerimeter;whiteSpace=wrap;html=1;fixedSize=1;" vertex="1" parent="1">
          <mxGeometry x="205" y="190" width="310" height="50" as="geometry" />
        </mxCell>
        <mxCell id="pRDgy3IIo6qXGNHevJjW-28" value="" style="edgeStyle=orthogonalEdgeStyle;rounded=0;orthogonalLoop=1;jettySize=auto;html=1;" edge="1" parent="1" source="pRDgy3IIo6qXGNHevJjW-4" target="pRDgy3IIo6qXGNHevJjW-2">
          <mxGeometry relative="1" as="geometry" />
        </mxCell>
        <mxCell id="pRDgy3IIo6qXGNHevJjW-4" value="count&amp;nbsp; = 0&lt;br&gt;i = 0" style="rounded=0;whiteSpace=wrap;html=1;" vertex="1" parent="1">
          <mxGeometry x="300" y="270" width="120" height="30" as="geometry" />
        </mxCell>
        <mxCell id="pRDgy3IIo6qXGNHevJjW-14" value="" style="edgeStyle=orthogonalEdgeStyle;rounded=0;orthogonalLoop=1;jettySize=auto;html=1;" edge="1" parent="1" source="pRDgy3IIo6qXGNHevJjW-5" target="pRDgy3IIo6qXGNHevJjW-6">
          <mxGeometry relative="1" as="geometry" />
        </mxCell>
        <mxCell id="pRDgy3IIo6qXGNHevJjW-5" value="&lt;span style=&quot;color: rgb(44, 45, 48); font-family: Onest, Roboto, &amp;quot;San Francisco&amp;quot;, &amp;quot;Helvetica Neue&amp;quot;, Helvetica, Arial; font-style: normal; font-variant-ligatures: normal; font-variant-caps: normal; font-weight: 400; letter-spacing: normal; orphans: 2; text-align: start; text-indent: 0px; text-transform: none; widows: 2; word-spacing: 0px; -webkit-text-stroke-width: 0px; background-color: rgb(255, 255, 255); text-decoration-thickness: initial; text-decoration-style: initial; text-decoration-color: initial; float: none; display: inline !important;&quot;&gt;&lt;font style=&quot;font-size: 12px;&quot;&gt;Вывод нового массива: &lt;br&gt;[“2”, “:-)”]&lt;/font&gt;&lt;br&gt;&lt;/span&gt;" style="shape=parallelogram;perimeter=parallelogramPerimeter;whiteSpace=wrap;html=1;fixedSize=1;" vertex="1" parent="1">
          <mxGeometry x="260" y="650" width="200" height="40" as="geometry" />
        </mxCell>
        <mxCell id="pRDgy3IIo6qXGNHevJjW-35" value="" style="edgeStyle=orthogonalEdgeStyle;rounded=0;orthogonalLoop=1;jettySize=auto;html=1;" edge="1" parent="1" source="pRDgy3IIo6qXGNHevJjW-24" target="pRDgy3IIo6qXGNHevJjW-25">
          <mxGeometry relative="1" as="geometry" />
        </mxCell>
        <mxCell id="pRDgy3IIo6qXGNHevJjW-36" value="ДА" style="edgeLabel;html=1;align=center;verticalAlign=middle;resizable=0;points=[];" vertex="1" connectable="0" parent="pRDgy3IIo6qXGNHevJjW-35">
          <mxGeometry x="0.328" y="-3" relative="1" as="geometry">
            <mxPoint x="3" y="-6" as="offset" />
          </mxGeometry>
        </mxCell>
        <mxCell id="pRDgy3IIo6qXGNHevJjW-38" style="edgeStyle=orthogonalEdgeStyle;rounded=0;orthogonalLoop=1;jettySize=auto;html=1;exitX=1;exitY=0.5;exitDx=0;exitDy=0;entryX=1;entryY=0.75;entryDx=0;entryDy=0;" edge="1" parent="1" source="pRDgy3IIo6qXGNHevJjW-24" target="pRDgy3IIo6qXGNHevJjW-11">
          <mxGeometry relative="1" as="geometry">
            <mxPoint x="570" y="420" as="targetPoint" />
            <Array as="points">
              <mxPoint x="571" y="485" />
              <mxPoint x="571" y="365" />
            </Array>
          </mxGeometry>
        </mxCell>
        <mxCell id="pRDgy3IIo6qXGNHevJjW-41" value="НЕТ" style="edgeLabel;html=1;align=center;verticalAlign=middle;resizable=0;points=[];" vertex="1" connectable="0" parent="pRDgy3IIo6qXGNHevJjW-38">
          <mxGeometry x="-0.6369" y="-3" relative="1" as="geometry">
            <mxPoint y="-3" as="offset" />
          </mxGeometry>
        </mxCell>
        <mxCell id="pRDgy3IIo6qXGNHevJjW-24" value="array1[i].Length &amp;lt;= 3" style="rhombus;whiteSpace=wrap;html=1;" vertex="1" parent="1">
          <mxGeometry x="280" y="450" width="160" height="70" as="geometry" />
        </mxCell>
        <mxCell id="pRDgy3IIo6qXGNHevJjW-40" style="edgeStyle=orthogonalEdgeStyle;rounded=0;orthogonalLoop=1;jettySize=auto;html=1;" edge="1" parent="1" source="pRDgy3IIo6qXGNHevJjW-25">
          <mxGeometry relative="1" as="geometry">
            <mxPoint x="570" y="480" as="targetPoint" />
          </mxGeometry>
        </mxCell>
        <mxCell id="pRDgy3IIo6qXGNHevJjW-25" value="array2[count] = array1[i]&lt;br&gt;count ++" style="rounded=0;whiteSpace=wrap;html=1;" vertex="1" parent="1">
          <mxGeometry x="290" y="560" width="140" height="40" as="geometry" />
        </mxCell>
        <mxCell id="pRDgy3IIo6qXGNHevJjW-32" value="" style="edgeStyle=orthogonalEdgeStyle;rounded=0;orthogonalLoop=1;jettySize=auto;html=1;" edge="1" parent="1" source="pRDgy3IIo6qXGNHevJjW-11" target="pRDgy3IIo6qXGNHevJjW-2">
          <mxGeometry relative="1" as="geometry" />
        </mxCell>
        <mxCell id="pRDgy3IIo6qXGNHevJjW-11" value="i ++" style="rounded=0;whiteSpace=wrap;html=1;" vertex="1" parent="1">
          <mxGeometry x="470" y="350" width="70" height="20" as="geometry" />
        </mxCell>
      </root>
    </mxGraphModel>
  </diagram>
</mxfile>
